<?xml version="1.0" encoding="utf-8" standalone="no"?>
<!DOCTYPE svg PUBLIC "-//W3C//DTD SVG 1.1//EN"
  "http://www.w3.org/Graphics/SVG/1.1/DTD/svg11.dtd">
<!-- Created with matplotlib (http://matplotlib.org/) -->
<svg height="252pt" version="1.1" viewBox="0 0 252 252" width="252pt" xmlns="http://www.w3.org/2000/svg" xmlns:xlink="http://www.w3.org/1999/xlink">
 <defs>
  <style type="text/css">
*{stroke-linecap:butt;stroke-linejoin:round;}
  </style>
 </defs>
 <g id="figure_1">
  <g id="patch_1">
   <path d="M 0 252 
L 252 252 
L 252 0 
L 0 0 
z
" style="fill:#ffffff;"/>
  </g>
  <g id="axes_1">
   <g id="patch_2">
    <path d="M 31.5 220.5 
L 226.8 220.5 
L 226.8 30.24 
L 31.5 30.24 
z
" style="fill:#ffffff;"/>
   </g>
   <g id="patch_3">
    <path d="M 235.677273 125.37 
L 228.575455 127.099636 
L 228.575455 125.387296 
L 22.622727 125.387296 
L 22.622727 125.352704 
L 228.575455 125.352704 
L 228.575455 123.640364 
z
" style="stroke:#000000;stroke-linejoin:miter;"/>
   </g>
   <g id="patch_4">
    <path d="M 129.15 21.591818 
L 130.925455 28.510364 
L 129.167755 28.510364 
L 129.167755 229.148182 
L 129.132245 229.148182 
L 129.132245 28.510364 
L 127.374545 28.510364 
z
" style="stroke:#000000;stroke-linejoin:miter;"/>
   </g>
   <g id="matplotlib.axis_1"/>
   <g id="matplotlib.axis_2"/>
   <g id="line2d_1">
    <path clip-path="url(#paf9d0ea01c)" d="M 217.922727 211.851818 
L 216.129339 210.104711 
L 214.33595 208.357603 
L 212.542562 206.610496 
L 210.749174 204.863388 
L 208.955785 203.116281 
L 207.162397 201.369174 
L 205.369008 199.622066 
L 203.57562 197.874959 
L 201.782231 196.127851 
L 199.988843 194.380744 
L 198.195455 192.633636 
L 196.402066 190.886529 
L 194.608678 189.139421 
L 192.815289 187.392314 
L 191.021901 185.645207 
L 189.228512 183.898099 
L 187.435124 182.150992 
L 185.641736 180.403884 
L 183.848347 178.656777 
L 182.054959 176.909669 
L 180.26157 175.162562 
L 178.468182 173.415455 
L 176.674793 171.668347 
L 174.881405 169.92124 
L 173.088017 168.174132 
L 171.294628 166.427025 
L 169.50124 164.679917 
L 167.707851 162.93281 
L 165.914463 161.185702 
L 164.121074 159.438595 
L 162.327686 157.691488 
L 160.534298 155.94438 
L 158.740909 154.197273 
L 156.947521 152.450165 
L 155.154132 150.703058 
L 153.360744 148.95595 
L 151.567355 147.208843 
L 149.773967 145.461736 
L 147.980579 143.714628 
L 146.18719 141.967521 
L 144.393802 140.220413 
L 142.600413 138.473306 
L 140.807025 136.726198 
L 139.013636 134.979091 
L 137.220248 133.231983 
L 135.42686 131.484876 
L 133.633471 129.737769 
L 131.840083 127.990661 
L 130.046694 126.243554 
L 128.253306 124.496446 
L 126.459917 122.749339 
L 124.666529 121.002231 
L 122.87314 119.255124 
L 121.079752 117.508017 
L 119.286364 115.760909 
L 117.492975 114.013802 
L 115.699587 112.266694 
L 113.906198 110.519587 
L 112.11281 108.772479 
L 110.319421 107.025372 
L 108.526033 105.278264 
L 106.732645 103.531157 
L 104.939256 101.78405 
L 103.145868 100.036942 
L 101.352479 98.289835 
L 99.559091 96.542727 
L 97.765702 94.79562 
L 95.972314 93.048512 
L 94.178926 91.301405 
L 92.385537 89.554298 
L 90.592149 87.80719 
L 88.79876 86.060083 
L 87.005372 84.312975 
L 85.211983 82.565868 
L 83.418595 80.81876 
L 81.625207 79.071653 
L 79.831818 77.324545 
L 78.03843 75.577438 
L 76.245041 73.830331 
L 74.451653 72.083223 
L 72.658264 70.336116 
L 70.864876 68.589008 
L 69.071488 66.841901 
L 67.278099 65.094793 
L 65.484711 63.347686 
L 63.691322 61.600579 
L 61.897934 59.853471 
L 60.104545 58.106364 
L 58.311157 56.359256 
L 56.517769 54.612149 
L 54.72438 52.865041 
L 52.930992 51.117934 
L 51.137603 49.370826 
L 49.344215 47.623719 
L 47.550826 45.876612 
L 45.757438 44.129504 
L 43.96405 42.382397 
L 42.170661 40.635289 
L 40.377273 38.888182 
" style="fill:none;stroke:#ff0000;stroke-linecap:square;stroke-width:1.5;"/>
   </g>
   <g id="text_1">
    <!-- $V=â„^2$ -->
    <defs>
     <path d="M 20.609375 0 
L 7.8125 72.90625 
L 17.484375 72.90625 
L 28.078125 10.203125 
L 63.484375 72.90625 
L 74.21875 72.90625 
L 32.078125 0 
z
" id="DejaVuSans-Oblique-56"/>
     <path d="M 10.59375 45.40625 
L 73.1875 45.40625 
L 73.1875 37.203125 
L 10.59375 37.203125 
z
M 10.59375 25.484375 
L 73.1875 25.484375 
L 73.1875 17.1875 
L 10.59375 17.1875 
z
" id="DejaVuSans-3d"/>
     <path d="M 62.25 18.703125 
Q 58.546875 26.078125 55.21875 28.421875 
Q 51.859375 30.8125 46 30.8125 
L 43.796875 30.8125 
Q 47.5625 28.515625 52.484375 18.703125 
L 59.46875 4.890625 
L 69.1875 4.890625 
z
M 56.296875 33.734375 
Q 58.890625 32.515625 61.640625 29.296875 
Q 64.40625 26.078125 67.4375 19.921875 
L 77.4375 0 
L 55.953125 0 
L 46.625 18.703125 
Q 43.015625 26.03125 39.625 28.421875 
Q 36.234375 30.8125 30.375 30.8125 
L 29.390625 30.8125 
L 29.390625 0 
L 9.765625 0 
L 9.765625 72.90625 
L 42.921875 72.90625 
Q 55.421875 72.90625 61.5625 67.671875 
Q 67.71875 62.453125 67.71875 51.90625 
Q 67.71875 41.75 62.015625 36.96875 
Q 59.625 34.96875 56.296875 33.734375 
z
M 29.390625 68.015625 
L 29.390625 35.6875 
L 45.265625 35.6875 
Q 46.4375 35.6875 47.5625 35.796875 
L 47.5625 67.921875 
Q 46.4375 68.015625 45.265625 68.015625 
z
M 52.6875 66.890625 
L 52.6875 36.859375 
Q 55.859375 37.9375 57.953125 39.9375 
Q 62.359375 44.140625 62.359375 51.90625 
Q 62.359375 59.671875 58.015625 63.8125 
Q 55.953125 65.828125 52.6875 66.890625 
z
M 14.65625 68.015625 
L 14.65625 4.890625 
L 24.515625 4.890625 
L 24.515625 68.015625 
z
" id="DejaVuSans-Oblique-211d"/>
     <path d="M 19.1875 8.296875 
L 53.609375 8.296875 
L 53.609375 0 
L 7.328125 0 
L 7.328125 8.296875 
Q 12.9375 14.109375 22.625 23.890625 
Q 32.328125 33.6875 34.8125 36.53125 
Q 39.546875 41.84375 41.421875 45.53125 
Q 43.3125 49.21875 43.3125 52.78125 
Q 43.3125 58.59375 39.234375 62.25 
Q 35.15625 65.921875 28.609375 65.921875 
Q 23.96875 65.921875 18.8125 64.3125 
Q 13.671875 62.703125 7.8125 59.421875 
L 7.8125 69.390625 
Q 13.765625 71.78125 18.9375 73 
Q 24.125 74.21875 28.421875 74.21875 
Q 39.75 74.21875 46.484375 68.546875 
Q 53.21875 62.890625 53.21875 53.421875 
Q 53.21875 48.921875 51.53125 44.890625 
Q 49.859375 40.875 45.40625 35.40625 
Q 44.1875 33.984375 37.640625 27.21875 
Q 31.109375 20.453125 19.1875 8.296875 
z
" id="DejaVuSans-32"/>
    </defs>
    <g transform="translate(200.168182 38.888182)scale(0.1 -0.1)">
     <use transform="translate(0 0.765625)" xlink:href="#DejaVuSans-Oblique-56"/>
     <use transform="translate(87.890625 0.765625)" xlink:href="#DejaVuSans-3d"/>
     <use transform="translate(191.162109 0.765625)" xlink:href="#DejaVuSans-Oblique-211d"/>
     <use transform="translate(277.378099 39.046875)scale(0.7)" xlink:href="#DejaVuSans-32"/>
    </g>
   </g>
   <g id="text_2">
    <!-- $U$ -->
    <defs>
     <path d="M 15.484375 72.90625 
L 25.390625 72.90625 
L 16.796875 28.609375 
Q 16.265625 25.640625 16.046875 23.703125 
Q 15.828125 21.78125 15.828125 20.3125 
Q 15.828125 13.578125 19.578125 10.078125 
Q 23.34375 6.59375 30.609375 6.59375 
Q 40.046875 6.59375 45.28125 11.765625 
Q 50.53125 16.9375 52.78125 28.609375 
L 61.375 72.90625 
L 71.296875 72.90625 
L 62.5 27.390625 
Q 59.625 12.640625 51.5625 5.609375 
Q 43.5 -1.421875 29.5 -1.421875 
Q 18.5625 -1.421875 12.1875 4.078125 
Q 5.8125 9.578125 5.8125 19 
Q 5.8125 20.703125 6.046875 22.828125 
Q 6.296875 24.953125 6.78125 27.390625 
z
" id="DejaVuSans-Oblique-55"/>
    </defs>
    <g style="fill:#ff0000;" transform="translate(164.659091 153.044182)scale(0.1 -0.1)">
     <use transform="translate(0 0.09375)" xlink:href="#DejaVuSans-Oblique-55"/>
    </g>
   </g>
  </g>
 </g>
 <defs>
  <clipPath id="paf9d0ea01c">
   <rect height="190.26" width="195.3" x="31.5" y="30.24"/>
  </clipPath>
 </defs>
</svg>
