<?xml version="1.0" encoding="utf-8" standalone="no"?>
<!DOCTYPE svg PUBLIC "-//W3C//DTD SVG 1.1//EN"
  "http://www.w3.org/Graphics/SVG/1.1/DTD/svg11.dtd">
<!-- Created with matplotlib (http://matplotlib.org/) -->
<svg height="252pt" version="1.1" viewBox="0 0 252 252" width="252pt" xmlns="http://www.w3.org/2000/svg" xmlns:xlink="http://www.w3.org/1999/xlink">
 <defs>
  <style type="text/css">
*{stroke-linecap:butt;stroke-linejoin:round;}
  </style>
 </defs>
 <g id="figure_1">
  <g id="patch_1">
   <path d="M 0 252 
L 252 252 
L 252 0 
L 0 0 
z
" style="fill:#ffffff;"/>
  </g>
  <g id="axes_1">
   <g id="patch_2">
    <path d="M 31.5 220.5 
L 226.8 220.5 
L 226.8 30.24 
L 31.5 30.24 
z
" style="fill:#ffffff;"/>
   </g>
   <g id="patch_3">
    <path d="M 235.677273 136.484741 
L 228.575455 137.992082 
L 228.575455 136.499814 
L 22.622727 136.499814 
L 22.622727 136.469667 
L 228.575455 136.469667 
L 228.575455 134.977399 
z
" style="stroke:#000000;stroke-linejoin:miter;"/>
   </g>
   <g id="patch_4">
    <path d="M 129.15 46.044248 
L 130.925455 52.073614 
L 129.167755 52.073614 
L 129.167755 226.925234 
L 129.132245 226.925234 
L 129.132245 52.073614 
L 127.374545 52.073614 
z
" style="stroke:#000000;stroke-linejoin:miter;"/>
   </g>
   <g id="patch_5">
    <path d="M 93.640909 46.044248 
L 97.571045 51.287544 
L 95.903545 51.75944 
L 129.166843 136.479974 
L 129.133157 136.489507 
L 95.869858 51.768973 
L 94.202357 52.24087 
z
" style="stroke:#000000;stroke-linejoin:miter;"/>
   </g>
   <g id="patch_6">
    <path d="M 164.659091 106.33791 
L 160.892783 111.667167 
L 159.649901 110.611974 
L 129.162554 136.495399 
L 129.137446 136.474082 
L 159.624793 110.590657 
L 158.381911 109.535464 
z
" style="stroke:#000000;stroke-linejoin:miter;"/>
   </g>
   <g id="matplotlib.axis_1"/>
   <g id="matplotlib.axis_2"/>
   <g id="line2d_1">
    <path clip-path="url(#p4100a40832)" d="M 217.922727 211.851818 
L 216.129339 210.329251 
L 214.33595 208.806684 
L 212.542562 207.284117 
L 210.749174 205.761549 
L 208.955785 204.238982 
L 207.162397 202.716415 
L 205.369008 201.193848 
L 203.57562 199.67128 
L 201.782231 198.148713 
L 199.988843 196.626146 
L 198.195455 195.103579 
L 196.402066 193.581012 
L 194.608678 192.058444 
L 192.815289 190.535877 
L 191.021901 189.01331 
L 189.228512 187.490743 
L 187.435124 185.968175 
L 185.641736 184.445608 
L 183.848347 182.923041 
L 182.054959 181.400474 
L 180.26157 179.877907 
L 178.468182 178.355339 
L 176.674793 176.832772 
L 174.881405 175.310205 
L 173.088017 173.787638 
L 171.294628 172.26507 
L 169.50124 170.742503 
L 167.707851 169.219936 
L 165.914463 167.697369 
L 164.121074 166.174802 
L 162.327686 164.652234 
L 160.534298 163.129667 
L 158.740909 161.6071 
L 156.947521 160.084533 
L 155.154132 158.561965 
L 153.360744 157.039398 
L 151.567355 155.516831 
L 149.773967 153.994264 
L 147.980579 152.471697 
L 146.18719 150.949129 
L 144.393802 149.426562 
L 142.600413 147.903995 
L 140.807025 146.381428 
L 139.013636 144.85886 
L 137.220248 143.336293 
L 135.42686 141.813726 
L 133.633471 140.291159 
L 131.840083 138.768592 
L 130.046694 137.246024 
L 128.253306 135.723457 
L 126.459917 134.20089 
L 124.666529 132.678323 
L 122.87314 131.155755 
L 121.079752 129.633188 
L 119.286364 128.110621 
L 117.492975 126.588054 
L 115.699587 125.065487 
L 113.906198 123.542919 
L 112.11281 122.020352 
L 110.319421 120.497785 
L 108.526033 118.975218 
L 106.732645 117.45265 
L 104.939256 115.930083 
L 103.145868 114.407516 
L 101.352479 112.884949 
L 99.559091 111.362382 
L 97.765702 109.839814 
L 95.972314 108.317247 
L 94.178926 106.79468 
L 92.385537 105.272113 
L 90.592149 103.749545 
L 88.79876 102.226978 
L 87.005372 100.704411 
L 85.211983 99.181844 
L 83.418595 97.659277 
L 81.625207 96.136709 
L 79.831818 94.614142 
L 78.03843 93.091575 
L 76.245041 91.569008 
L 74.451653 90.04644 
L 72.658264 88.523873 
L 70.864876 87.001306 
L 69.071488 85.478739 
L 67.278099 83.956172 
L 65.484711 82.433604 
L 63.691322 80.911037 
L 61.897934 79.38847 
L 60.104545 77.865903 
L 58.311157 76.343335 
L 56.517769 74.820768 
L 54.72438 73.298201 
L 52.930992 71.775634 
L 51.137603 70.253067 
L 49.344215 68.730499 
L 47.550826 67.207932 
L 45.757438 65.685365 
L 43.96405 64.162798 
L 42.170661 62.64023 
L 40.377273 61.117663 
" style="fill:none;stroke:#ff0000;stroke-linecap:square;stroke-width:1.5;"/>
   </g>
   <g id="line2d_2">
    <path clip-path="url(#p4100a40832)" d="M 217.922727 151.558156 
L 216.129339 150.035589 
L 214.33595 148.513022 
L 212.542562 146.990455 
L 210.749174 145.467887 
L 208.955785 143.94532 
L 207.162397 142.422753 
L 205.369008 140.900186 
L 203.57562 139.377618 
L 201.782231 137.855051 
L 199.988843 136.332484 
L 198.195455 134.809917 
L 196.402066 133.28735 
L 194.608678 131.764782 
L 192.815289 130.242215 
L 191.021901 128.719648 
L 189.228512 127.197081 
L 187.435124 125.674513 
L 185.641736 124.151946 
L 183.848347 122.629379 
L 182.054959 121.106812 
L 180.26157 119.584245 
L 178.468182 118.061677 
L 176.674793 116.53911 
L 174.881405 115.016543 
L 173.088017 113.493976 
L 171.294628 111.971408 
L 169.50124 110.448841 
L 167.707851 108.926274 
L 165.914463 107.403707 
L 164.121074 105.88114 
L 162.327686 104.358572 
L 160.534298 102.836005 
L 158.740909 101.313438 
L 156.947521 99.790871 
L 155.154132 98.268303 
L 153.360744 96.745736 
L 151.567355 95.223169 
L 149.773967 93.700602 
L 147.980579 92.178035 
L 146.18719 90.655467 
L 144.393802 89.1329 
L 142.600413 87.610333 
L 140.807025 86.087766 
L 139.013636 84.565198 
L 137.220248 83.042631 
L 135.42686 81.520064 
L 133.633471 79.997497 
L 131.840083 78.47493 
L 130.046694 76.952362 
L 128.253306 75.429795 
L 126.459917 73.907228 
L 124.666529 72.384661 
L 122.87314 70.862093 
L 121.079752 69.339526 
L 119.286364 67.816959 
L 117.492975 66.294392 
L 115.699587 64.771825 
L 113.906198 63.249257 
L 112.11281 61.72669 
L 110.319421 60.204123 
L 108.526033 58.681556 
L 106.732645 57.158988 
L 104.939256 55.636421 
L 103.145868 54.113854 
L 101.352479 52.591287 
L 99.559091 51.06872 
L 97.765702 49.546152 
L 95.972314 48.023585 
L 94.178926 46.501018 
L 92.385537 44.978451 
L 90.592149 43.455883 
L 88.79876 41.933316 
L 87.005372 40.410749 
L 85.211983 38.888182 
" style="fill:none;stroke:#0000ff;stroke-linecap:square;stroke-width:1.5;"/>
   </g>
   <g id="text_1">
    <!-- $V=ℝ^2$ -->
    <defs>
     <path d="M 20.609375 0 
L 7.8125 72.90625 
L 17.484375 72.90625 
L 28.078125 10.203125 
L 63.484375 72.90625 
L 74.21875 72.90625 
L 32.078125 0 
z
" id="DejaVuSans-Oblique-56"/>
     <path d="M 10.59375 45.40625 
L 73.1875 45.40625 
L 73.1875 37.203125 
L 10.59375 37.203125 
z
M 10.59375 25.484375 
L 73.1875 25.484375 
L 73.1875 17.1875 
L 10.59375 17.1875 
z
" id="DejaVuSans-3d"/>
     <path d="M 62.25 18.703125 
Q 58.546875 26.078125 55.21875 28.421875 
Q 51.859375 30.8125 46 30.8125 
L 43.796875 30.8125 
Q 47.5625 28.515625 52.484375 18.703125 
L 59.46875 4.890625 
L 69.1875 4.890625 
z
M 56.296875 33.734375 
Q 58.890625 32.515625 61.640625 29.296875 
Q 64.40625 26.078125 67.4375 19.921875 
L 77.4375 0 
L 55.953125 0 
L 46.625 18.703125 
Q 43.015625 26.03125 39.625 28.421875 
Q 36.234375 30.8125 30.375 30.8125 
L 29.390625 30.8125 
L 29.390625 0 
L 9.765625 0 
L 9.765625 72.90625 
L 42.921875 72.90625 
Q 55.421875 72.90625 61.5625 67.671875 
Q 67.71875 62.453125 67.71875 51.90625 
Q 67.71875 41.75 62.015625 36.96875 
Q 59.625 34.96875 56.296875 33.734375 
z
M 29.390625 68.015625 
L 29.390625 35.6875 
L 45.265625 35.6875 
Q 46.4375 35.6875 47.5625 35.796875 
L 47.5625 67.921875 
Q 46.4375 68.015625 45.265625 68.015625 
z
M 52.6875 66.890625 
L 52.6875 36.859375 
Q 55.859375 37.9375 57.953125 39.9375 
Q 62.359375 44.140625 62.359375 51.90625 
Q 62.359375 59.671875 58.015625 63.8125 
Q 55.953125 65.828125 52.6875 66.890625 
z
M 14.65625 68.015625 
L 14.65625 4.890625 
L 24.515625 4.890625 
L 24.515625 68.015625 
z
" id="DejaVuSans-Oblique-211d"/>
     <path d="M 19.1875 8.296875 
L 53.609375 8.296875 
L 53.609375 0 
L 7.328125 0 
L 7.328125 8.296875 
Q 12.9375 14.109375 22.625 23.890625 
Q 32.328125 33.6875 34.8125 36.53125 
Q 39.546875 41.84375 41.421875 45.53125 
Q 43.3125 49.21875 43.3125 52.78125 
Q 43.3125 58.59375 39.234375 62.25 
Q 35.15625 65.921875 28.609375 65.921875 
Q 23.96875 65.921875 18.8125 64.3125 
Q 13.671875 62.703125 7.8125 59.421875 
L 7.8125 69.390625 
Q 13.765625 71.78125 18.9375 73 
Q 24.125 74.21875 28.421875 74.21875 
Q 39.75 74.21875 46.484375 68.546875 
Q 53.21875 62.890625 53.21875 53.421875 
Q 53.21875 48.921875 51.53125 44.890625 
Q 49.859375 40.875 45.40625 35.40625 
Q 44.1875 33.984375 37.640625 27.21875 
Q 31.109375 20.453125 19.1875 8.296875 
z
" id="DejaVuSans-32"/>
    </defs>
    <g transform="translate(200.168182 61.117663)scale(0.1 -0.1)">
     <use transform="translate(0 0.765625)" xlink:href="#DejaVuSans-Oblique-56"/>
     <use transform="translate(87.890625 0.765625)" xlink:href="#DejaVuSans-3d"/>
     <use transform="translate(191.162109 0.765625)" xlink:href="#DejaVuSans-Oblique-211d"/>
     <use transform="translate(277.378099 39.046875)scale(0.7)" xlink:href="#DejaVuSans-32"/>
    </g>
   </g>
   <g id="text_2">
    <!-- $U$ -->
    <defs>
     <path d="M 15.484375 72.90625 
L 25.390625 72.90625 
L 16.796875 28.609375 
Q 16.265625 25.640625 16.046875 23.703125 
Q 15.828125 21.78125 15.828125 20.3125 
Q 15.828125 13.578125 19.578125 10.078125 
Q 23.34375 6.59375 30.609375 6.59375 
Q 40.046875 6.59375 45.28125 11.765625 
Q 50.53125 16.9375 52.78125 28.609375 
L 61.375 72.90625 
L 71.296875 72.90625 
L 62.5 27.390625 
Q 59.625 12.640625 51.5625 5.609375 
Q 43.5 -1.421875 29.5 -1.421875 
Q 18.5625 -1.421875 12.1875 4.078125 
Q 5.8125 9.578125 5.8125 19 
Q 5.8125 20.703125 6.046875 22.828125 
Q 6.296875 24.953125 6.78125 27.390625 
z
" id="DejaVuSans-Oblique-55"/>
    </defs>
    <g style="fill:#ff0000;" transform="translate(164.659091 160.602206)scale(0.1 -0.1)">
     <use transform="translate(0 0.09375)" xlink:href="#DejaVuSans-Oblique-55"/>
    </g>
   </g>
   <g id="text_3">
    <!-- $v+U$ -->
    <defs>
     <path d="M 7.171875 54.6875 
L 16.703125 54.6875 
L 24.703125 8.203125 
L 50.875 54.6875 
L 60.40625 54.6875 
L 29.296875 0 
L 17.1875 0 
z
" id="DejaVuSans-Oblique-76"/>
     <path d="M 46 62.703125 
L 46 35.5 
L 73.1875 35.5 
L 73.1875 27.203125 
L 46 27.203125 
L 46 0 
L 37.796875 0 
L 37.796875 27.203125 
L 10.59375 27.203125 
L 10.59375 35.5 
L 37.796875 35.5 
L 37.796875 62.703125 
z
" id="DejaVuSans-2b"/>
    </defs>
    <g style="fill:#0000ff;" transform="translate(143.353636 82.220445)scale(0.1 -0.1)">
     <use transform="translate(0 0.09375)" xlink:href="#DejaVuSans-Oblique-76"/>
     <use transform="translate(78.662109 0.09375)" xlink:href="#DejaVuSans-2b"/>
     <use transform="translate(181.933594 0.09375)" xlink:href="#DejaVuSans-Oblique-55"/>
    </g>
   </g>
   <g id="text_4">
    <!-- $v$ -->
    <g transform="translate(93.640909 82.220445)scale(0.1 -0.1)">
     <use transform="translate(0 0.3125)" xlink:href="#DejaVuSans-Oblique-76"/>
    </g>
   </g>
   <g id="text_5">
    <!-- $v‘$ -->
    <defs>
     <path d="M 18.796875 48.875 
L 8.5 48.875 
L 8.5 57.328125 
L 16.5 72.90625 
L 22.796875 72.90625 
L 18.796875 57.328125 
z
" id="DejaVuSansDisplay-2018"/>
    </defs>
    <g transform="translate(146.904545 128.948033)scale(0.1 -0.1)">
     <use transform="translate(0 0.09375)" xlink:href="#DejaVuSans-Oblique-76"/>
     <use transform="translate(59.179688 0.09375)" xlink:href="#DejaVuSansDisplay-2018"/>
    </g>
   </g>
   <g id="text_6">
    <!-- $v+U = v‘+U$ -->
    <g style="fill:#0000ff;" transform="translate(143.353636 82.220445)scale(0.1 -0.1)">
     <use transform="translate(0 0.09375)" xlink:href="#DejaVuSans-Oblique-76"/>
     <use transform="translate(78.662109 0.09375)" xlink:href="#DejaVuSans-2b"/>
     <use transform="translate(181.933594 0.09375)" xlink:href="#DejaVuSans-Oblique-55"/>
     <use transform="translate(274.609375 0.09375)" xlink:href="#DejaVuSans-3d"/>
     <use transform="translate(377.880859 0.09375)" xlink:href="#DejaVuSans-Oblique-76"/>
     <use transform="translate(437.060547 0.09375)" xlink:href="#DejaVuSansDisplay-2018"/>
     <use transform="translate(488.330078 0.09375)" xlink:href="#DejaVuSans-2b"/>
     <use transform="translate(591.601562 0.09375)" xlink:href="#DejaVuSans-Oblique-55"/>
    </g>
   </g>
  </g>
 </g>
 <defs>
  <clipPath id="p4100a40832">
   <rect height="190.26" width="195.3" x="31.5" y="30.24"/>
  </clipPath>
 </defs>
</svg>
